<?xml version="1.0" encoding="UTF-8" standalone="no"?>
<!DOCTYPE svg PUBLIC "-//W3C//DTD SVG 1.1//EN"
 "http://www.w3.org/Graphics/SVG/1.1/DTD/svg11.dtd">
<!-- Generated by graphviz version 2.26.3 (20100126.1600)
 -->
<!-- Title: CFG for &#39;baz&#39; function Pages: 1 -->
<svg width="492pt" height="324pt"
 viewBox="0.00 0.00 492.00 324.00" xmlns="http://www.w3.org/2000/svg" xmlns:xlink="http://www.w3.org/1999/xlink">
<g id="graph1" class="graph" transform="scale(1 1) rotate(0) translate(4 320)">
<title>CFG for &#39;baz&#39; function</title>
<polygon fill="white" stroke="white" points="-4,5 -4,-320 489,-320 489,5 -4,5"/>
<text text-anchor="middle" x="242" y="-9.4" font-family="Times Roman,serif" font-size="14.00">CFG for &#39;baz&#39; function</text>
<!-- Node0x9f164a0 -->
<g id="node1" class="node"><title>Node0x9f164a0</title>
<polygon fill="none" stroke="black" points="64,-227 64,-315 414,-315 414,-227 64,-227"/>
<text text-anchor="start" x="72" y="-298.4" font-family="Times Roman,serif" font-size="14.00">entry:</text>
<text text-anchor="start" x="72" y="-280.4" font-family="Times Roman,serif" font-size="14.00"> %ifcond = fcmp one double %x, 0.000000e+00</text>
<text text-anchor="start" x="72" y="-262.4" font-family="Times Roman,serif" font-size="14.00"> br i1 %ifcond, label %then, label %else</text>
<polyline fill="none" stroke="black" points="64,-253 414,-253 "/>
<text text-anchor="middle" x="151.5" y="-236.4" font-family="Times Roman,serif" font-size="14.00">T</text>
<polyline fill="none" stroke="black" points="239,-227 239,-253 "/>
<text text-anchor="middle" x="326.5" y="-236.4" font-family="Times Roman,serif" font-size="14.00">F</text>
</g>
<!-- Node0x9f164d0 -->
<g id="node3" class="node"><title>Node0x9f164d0</title>
<polygon fill="none" stroke="black" points="0,-127 0,-189 228,-189 228,-127 0,-127"/>
<text text-anchor="start" x="8" y="-172.4" font-family="Times Roman,serif" font-size="14.00">then: </text>
<text text-anchor="start" x="8" y="-154.4" font-family="Times Roman,serif" font-size="14.00"> %calltmp = call double @foo()</text>
<text text-anchor="start" x="8" y="-136.4" font-family="Times Roman,serif" font-size="14.00"> br label %ifcont</text>
</g>
<!-- Node0x9f164a0&#45;&gt;Node0x9f164d0 -->
<g id="edge2" class="edge"><title>Node0x9f164a0:s0&#45;&gt;Node0x9f164d0</title>
<path fill="none" stroke="black" d="M151,-227C151,-217.113 148.013,-207.275 143.737,-198.255"/>
<polygon fill="black" stroke="black" points="146.688,-196.351 138.885,-189.184 140.515,-199.653 146.688,-196.351"/>
</g>
<!-- Node0x9f16500 -->
<g id="node5" class="node"><title>Node0x9f16500</title>
<polygon fill="none" stroke="black" points="245.5,-127 245.5,-189 484.5,-189 484.5,-127 245.5,-127"/>
<text text-anchor="start" x="253.5" y="-172.4" font-family="Times Roman,serif" font-size="14.00">else: </text>
<text text-anchor="start" x="253.5" y="-154.4" font-family="Times Roman,serif" font-size="14.00"> %calltmp1 = call double @bar()</text>
<text text-anchor="start" x="253.5" y="-136.4" font-family="Times Roman,serif" font-size="14.00"> br label %ifcont</text>
</g>
<!-- Node0x9f164a0&#45;&gt;Node0x9f16500 -->
<g id="edge4" class="edge"><title>Node0x9f164a0:s1&#45;&gt;Node0x9f16500</title>
<path fill="none" stroke="black" d="M327,-227C327,-216.948 330.132,-206.981 334.599,-197.878"/>
<polygon fill="black" stroke="black" points="337.679,-199.538 339.443,-189.091 331.549,-196.159 337.679,-199.538"/>
</g>
<!-- Node0x9f16530 -->
<g id="node7" class="node"><title>Node0x9f16530</title>
<polygon fill="none" stroke="black" points="12,-27 12,-89 466,-89 466,-27 12,-27"/>
<text text-anchor="start" x="20" y="-72.4" font-family="Times Roman,serif" font-size="14.00">ifcont: </text>
<text text-anchor="start" x="20" y="-54.4" font-family="Times Roman,serif" font-size="14.00"> %iftmp = phi double [ %calltmp, %then ], [ %calltmp1, %else ]</text>
<text text-anchor="start" x="20" y="-36.4" font-family="Times Roman,serif" font-size="14.00"> ret double %iftmp</text>
</g>
<!-- Node0x9f164d0&#45;&gt;Node0x9f16530 -->
<g id="edge6" class="edge"><title>Node0x9f164d0&#45;&gt;Node0x9f16530</title>
<path fill="none" stroke="black" d="M152.866,-126.908C165.329,-116.937 179.263,-105.789 192.231,-95.4153"/>
<polygon fill="black" stroke="black" points="194.536,-98.0533 200.158,-89.0732 190.163,-92.5872 194.536,-98.0533"/>
</g>
<!-- Node0x9f16500&#45;&gt;Node0x9f16530 -->
<g id="edge8" class="edge"><title>Node0x9f16500&#45;&gt;Node0x9f16530</title>
<path fill="none" stroke="black" d="M325.823,-126.908C313.26,-116.937 299.215,-105.789 286.143,-95.4153"/>
<polygon fill="black" stroke="black" points="288.161,-92.5483 278.152,-89.0732 283.809,-98.0314 288.161,-92.5483"/>
</g>
</g>
</svg>
